<svg width="12" height="11" viewBox="0 0 12 11" fill="none" xmlns="http://www.w3.org/2000/svg">
<path d="M2.20312 7.96094C3 9.17969 4.40625 10 6 10C8.48438 10 10.5 7.98438 10.5 5.5C10.5 3.01562 8.48438 1 6 1C4.875 1 3.86719 1.42188 3.09375 2.07812L3.9375 2.92188C4.05469 3.03906 4.125 3.20312 4.125 3.36719C4.125 3.71875 3.82031 4 3.46875 4H1.125C0.914062 4 0.75 3.83594 0.75 3.625V1.28125C0.75 0.929688 1.03125 0.625 1.38281 0.625C1.54688 0.625 1.71094 0.695312 1.82812 0.8125L2.55469 1.53906C3.46875 0.742188 4.66406 0.25 6 0.25C8.88281 0.25 11.25 2.61719 11.25 5.5C11.25 8.40625 8.88281 10.75 6 10.75C4.125 10.75 2.48438 9.78906 1.54688 8.3125C1.38281 8.05469 1.57031 7.75 1.875 7.75C2.01562 7.75 2.13281 7.84375 2.20312 7.96094Z" fill="black" style="fill:black;fill-opacity:1;"/>
</svg>
