<svg width="11" height="11" viewBox="0 0 11 11" fill="none" xmlns="http://www.w3.org/2000/svg">
<path d="M9.9698 0.144928C10.1104 0.00430298 10.3682 0.00430298 10.5089 0.144928C10.6495 0.285553 10.6495 0.543365 10.5089 0.68399L5.89168 5.27774L10.5089 9.89493C10.6495 10.0356 10.6495 10.2934 10.5089 10.434C10.3682 10.5746 10.1104 10.5746 9.9698 10.434L5.37605 5.8168L0.758865 10.434C0.61824 10.5746 0.360428 10.5746 0.219803 10.434C0.0791779 10.2934 0.0791779 10.0356 0.219803 9.89493L4.83699 5.27774L0.219803 0.68399C0.0791779 0.543365 0.0791779 0.285553 0.219803 0.144928C0.360428 0.00430298 0.61824 0.00430298 0.758865 0.144928L5.37605 4.76212L9.9698 0.144928Z" fill="black" style="fill:black;fill-opacity:1;"/>
</svg>
